<?xml version="1.0" encoding="utf-8"?>
<!-- Generator: Adobe Illustrator 17.1.0, SVG Export Plug-In . SVG Version: 6.00 Build 0)  -->
<!DOCTYPE svg PUBLIC "-//W3C//DTD SVG 1.1//EN" "http://www.w3.org/Graphics/SVG/1.1/DTD/svg11.dtd">
<svg version="1.1" id="Layer_1" xmlns="http://www.w3.org/2000/svg" xmlns:xlink="http://www.w3.org/1999/xlink" x="0px" y="0px"
	 viewBox="0 0 36 36" enable-background="new 0 0 36 36" xml:space="preserve">
<path fill="#808285" d="M18,2.017C9.173,2.017,2.017,9.173,2.017,18S9.173,33.983,18,33.983S33.983,26.827,33.983,18
	S26.827,2.017,18,2.017z M21.902,18.007H19.35c0,4.079,0,9.102,0,9.102h-3.784c0,0,0-4.974,0-9.102h-1.799V14.79h1.799v-2.081
	c0-1.49,0.708-3.818,3.818-3.818l2.802,0.011v3.121c0,0-1.704,0-2.034,0c-0.331,0-0.802,0.166-0.802,0.876v1.891h2.883
	L21.902,18.007z"/>
</svg>
