<?xml version="1.0" encoding="utf-8"?>
<!-- Generator: Adobe Illustrator 17.1.0, SVG Export Plug-In . SVG Version: 6.00 Build 0)  -->
<!DOCTYPE svg PUBLIC "-//W3C//DTD SVG 1.1//EN" "http://www.w3.org/Graphics/SVG/1.1/DTD/svg11.dtd">
<svg version="1.1" id="Layer_1" xmlns="http://www.w3.org/2000/svg" xmlns:xlink="http://www.w3.org/1999/xlink" x="0px" y="0px"
	 viewBox="0 0 36 36" enable-background="new 0 0 36 36" xml:space="preserve">
<g>
	<path fill="#808285" d="M18,21.121c1.696,0,3.077-1.4,3.077-3.12c0-0.68-0.218-1.307-0.582-1.82
		c-0.56-0.786-1.468-1.301-2.495-1.301c-1.027,0-1.935,0.515-2.495,1.301c-0.364,0.513-0.582,1.14-0.582,1.82
		C14.923,19.72,16.303,21.121,18,21.121z"/>
	<polygon fill="#808285" points="24.718,14.182 24.718,11.566 24.718,11.176 24.332,11.178 21.755,11.186 21.765,14.191 	"/>
	<path fill="#808285" d="M18,1.692C9.12,1.692,1.922,8.993,1.922,18S9.12,34.308,18,34.308S34.078,27.007,34.078,18
		S26.88,1.692,18,1.692z M26.741,16.18v7.26c0,1.89-1.516,3.427-3.379,3.427H12.637c-1.863,0-3.379-1.537-3.379-3.427v-7.26V12.56
		c0-1.89,1.516-3.427,3.379-3.427h10.725c1.863,0,3.379,1.537,3.379,3.427V16.18z"/>
	<path fill="#808285" d="M22.78,18c0,2.673-2.144,4.849-4.78,4.849S13.22,20.673,13.22,18c0-0.644,0.127-1.258,0.352-1.82h-2.61
		v7.26c0,0.937,0.751,1.699,1.675,1.699h10.725c0.924,0,1.675-0.762,1.675-1.699v-7.26h-2.61C22.653,16.742,22.78,17.356,22.78,18z"
		/>
</g>
</svg>
