<?xml version="1.0" encoding="utf-8"?>
<!-- Generator: Adobe Illustrator 17.1.0, SVG Export Plug-In . SVG Version: 6.00 Build 0)  -->
<!DOCTYPE svg PUBLIC "-//W3C//DTD SVG 1.1//EN" "http://www.w3.org/Graphics/SVG/1.1/DTD/svg11.dtd">
<svg version="1.1" id="Layer_1" xmlns="http://www.w3.org/2000/svg" xmlns:xlink="http://www.w3.org/1999/xlink" x="0px" y="0px"
	 viewBox="0 0 36 36" enable-background="new 0 0 36 36" xml:space="preserve">
<path fill="#808285" d="M18,1.827C9.068,1.827,1.827,9.068,1.827,18S9.068,34.173,18,34.173S34.173,26.932,34.173,18
	S26.932,1.827,18,1.827z M20.139,22.23c-1.178,0-2.286-0.636-2.666-1.36c0,0-0.634,2.514-0.767,2.999
	c-0.472,1.715-1.863,3.431-1.97,3.571c-0.075,0.098-0.242,0.067-0.259-0.063c-0.03-0.218-0.384-2.381,0.033-4.146
	c0.209-0.887,1.404-5.946,1.404-5.946s-0.348-0.697-0.348-1.727c0-1.617,0.938-2.824,2.104-2.824c0.992,0,1.472,0.745,1.472,1.638
	c0,0.998-0.635,2.49-0.963,3.872c-0.274,1.158,0.581,2.102,1.722,2.102c2.067,0,3.459-2.656,3.459-5.802
	c0-2.391-1.61-4.181-4.54-4.181c-3.309,0-5.372,2.468-5.372,5.226c0,0.951,0.281,1.622,0.72,2.14
	c0.202,0.239,0.23,0.335,0.157,0.608c-0.053,0.202-0.173,0.685-0.223,0.876c-0.072,0.277-0.296,0.375-0.546,0.273
	c-1.524-0.622-2.234-2.291-2.234-4.168c0-3.1,2.614-6.816,7.798-6.816c4.166,0,6.908,3.014,6.908,6.251
	C26.026,19.033,23.647,22.23,20.139,22.23z"/>
</svg>
