<?xml version="1.0" encoding="utf-8"?>
<!-- Generator: Adobe Illustrator 17.1.0, SVG Export Plug-In . SVG Version: 6.00 Build 0)  -->
<!DOCTYPE svg PUBLIC "-//W3C//DTD SVG 1.1//EN" "http://www.w3.org/Graphics/SVG/1.1/DTD/svg11.dtd">
<svg version="1.1" id="Layer_1" xmlns="http://www.w3.org/2000/svg" xmlns:xlink="http://www.w3.org/1999/xlink" x="0px" y="0px"
	 viewBox="0 0 36 36" enable-background="new 0 0 36 36" xml:space="preserve">
<path fill="#808285" d="M18,1.621C8.954,1.621,1.621,8.954,1.621,18S8.954,34.379,18,34.379S34.379,27.046,34.379,18
	S27.046,1.621,18,1.621z M22.92,27.329c-0.655,0-4.282-0.086-5.209-0.086c-0.926,0-5.754-1.505-5.754-6.817
	c0-0.948-0.001-1.897-0.003-2.845c-0.004-0.882-0.022-1.764-0.025-2.641c-0.001-0.255-0.002-0.511-0.003-0.765
	c-0.006-1.339-0.12-2.845,0.311-4.131c0.328-0.979,1.107-1.373,2.067-1.373c2.32,0,2.475,2.367,2.482,4.742h6.706
	c1.063,0,1.856,1.079,1.856,2.725c0,1.648-1.719,2.017-2.619,2.017H16.71c-0.031,1.008-0.062,1.83-0.062,2.329
	c0,1.051,0.409,2.185,2.971,2.185h3.602c0.9,0,2.235,0.682,2.235,2.584C25.456,27.156,23.575,27.329,22.92,27.329z"/>
</svg>
